<svg width="203" height="195" viewBox="0 0 203 195" fill="none" xmlns="http://www.w3.org/2000/svg">
<path d="M101.25 3C155.474 3 199.5 45.3455 199.5 97.5C199.5 149.655 155.474 192 101.25 192C47.0258 192 3 149.655 3 97.5C3 45.3455 47.0258 3 101.25 3Z" fill="#FFD426"/>
<path d="M101.25 3C155.474 3 199.5 45.3454 199.5 97.5C199.5 149.655 155.474 192 101.25 192C47.0258 192 3 149.655 3 97.5C3 45.3454 47.0258 3 101.25 3Z" stroke="white" stroke-width="6"/>
<path d="M159.867 62.7695C172.165 60.198 184.321 67.7143 186.994 79.5432C189.668 91.3721 181.853 103.064 169.555 105.636C157.257 108.207 145.101 100.691 142.427 88.862C139.754 77.0331 147.568 65.3411 159.867 62.7695Z" fill="#984DFF"/>
<path d="M88.3913 34.5953C128.322 26.246 167.139 46.4382 175.474 80.2794L175.728 81.3032L163.989 83.7578C157.694 55.908 125.135 38.737 90.9433 45.8864C57.1225 52.9582 35.0104 81.0992 40.6742 108.685L40.8592 109.504L29.1201 111.958C21.336 77.5187 48.0899 43.0222 88.3913 34.5953Z" fill="#B06BFF"/>
<path d="M118.048 77.7984C121.606 93.5387 137.756 103.525 154.121 100.103C170.486 96.6812 180.868 81.1471 177.311 65.4068C173.753 49.6665 157.603 39.6803 141.238 43.1021C124.873 46.524 114.49 62.0581 118.048 77.7984Z" fill="#303135"/>
<path d="M35.3713 127.646C27.6773 93.6045 64.2085 60.2067 94.6301 52.3511L97.4013 51.7716C127.629 46.9016 164.178 53.4139 177.422 90.2727C178.167 92.3586 179.105 94.3825 180.207 96.3279C199.51 130.777 159.046 151.018 121.726 159.393L121.731 159.414C121.273 159.51 120.814 159.606 120.351 159.681C119.876 159.802 119.418 159.898 118.96 159.994L118.955 159.973C80.3584 167.45 43.1175 161.917 35.3713 127.646Z" fill="white"/>
<path d="M125.466 97.67C129.11 96.9081 131.374 97.9292 131.825 99.9229C132.275 101.917 130.152 104.251 127.097 104.89C124.043 105.528 121.082 104.257 120.631 102.263C120.18 100.27 121.8 98.4365 125.466 97.67Z" fill="#303135"/>
<path d="M165.172 129.739C175.078 127.667 182.774 114.607 178.942 97.6493C174.876 79.6633 159.009 66.7828 147.609 69.6279C134.723 72.8718 134.052 90.0238 136.733 100.87C141.102 118.485 152.101 132.471 165.172 129.739Z" fill="#303135"/>
<path d="M141.538 98.8193C143.393 107.025 149.898 112.654 156.073 111.363C162.27 110.067 165.759 102.349 163.904 94.1428C162.044 85.9158 155.539 80.2867 149.342 81.5825C143.167 82.8737 139.679 90.5923 141.538 98.8193Z" fill="white"/>
<path d="M151.311 86.8677C154.885 86.0985 157.406 88.2529 159.074 91.9922C159.879 93.7359 160.451 95.6604 161.008 98.2254L161.318 99.699C161.375 99.9509 161.41 100.207 161.472 100.48C161.741 101.874 160.771 103.242 159.321 103.501C157.85 103.765 156.433 102.853 156.158 101.437L155.889 100.043L155.609 98.8048L155.331 97.6761C154.96 96.2371 154.581 95.0636 154.121 94.0389C153.346 92.3326 152.808 91.8736 152.503 91.9375C151.717 92.1017 151.332 93.1273 151.498 95.3784L151.587 96.1732C151.605 96.4552 151.649 96.7535 151.694 97.0519L151.873 98.0474L152.135 99.5092L152.627 101.89C152.897 103.284 151.926 104.652 150.477 104.911C149.005 105.175 147.583 104.241 147.314 102.847L146.628 99.408L146.54 98.9207C145.338 92.1829 146.128 87.9956 151.311 86.8677Z" fill="#303135"/>
<path d="M112.535 106.994C116.114 125.257 109.12 143.446 90.6163 147.315C76.5861 150.248 59.6472 142.031 55.7148 124.633C51.5358 106.144 65.4663 86.5927 81.8483 83.6508C100.409 80.3412 110.329 95.7183 112.535 106.994Z" fill="#303135"/>
<path d="M102.979 107.908C104.886 116.345 99.6467 124.606 91.2679 126.358C82.9109 128.105 74.5785 122.682 72.6716 114.246C70.7599 105.788 75.9995 97.5271 84.3566 95.7797C92.7354 94.0277 101.068 99.4506 102.979 107.908Z" fill="white"/>
<path d="M85.3114 100.662C91.605 99.3895 94.9501 102.866 97.0136 109.468L97.2422 110.277L97.5496 111.334L98.2772 114.149C98.6672 115.672 97.7223 117.254 96.1171 117.634C94.5166 118.034 92.8934 117.121 92.4769 115.581L91.6136 112.267L91.4305 111.558C90.1412 107.168 88.8956 105.802 86.5391 106.295C85.3342 106.525 84.8314 107.334 84.7394 109.353C84.6834 110.925 84.9244 112.699 85.487 115.087L85.8171 116.447C85.8693 116.677 85.948 116.925 86.005 117.176C86.4215 118.716 85.45 120.282 83.8714 120.678C82.2709 121.078 80.643 120.144 80.2265 118.605L80.0244 117.812L79.6487 116.352C78.9818 113.502 78.6678 111.304 78.7702 109.128C78.9438 104.74 81.03 101.535 85.3114 100.662Z" fill="#303135"/>
<path d="M74.7858 49.2282C72.802 49.0664 70.982 48.4907 69.3748 47.5761L73.0457 40.9373C73.7506 41.3468 74.5689 41.6072 75.4372 41.6708C78.6563 41.938 81.5237 39.467 81.816 36.2078C82.0802 32.935 79.6811 30.0553 76.4408 29.7949C73.5675 29.5762 70.9843 31.5046 70.2557 34.2464L63.0236 32.3583C64.6667 26.1145 70.541 21.7165 77.0922 22.2375C84.4412 22.8219 89.9079 29.3642 89.2638 36.8061C88.6198 44.248 82.1347 49.8126 74.7858 49.2282Z" fill="#FF5A2E"/>
<path d="M71.7351 22.8527C73.6011 22.2602 75.5222 22.1027 77.3927 22.3456L76.692 29.8282C75.8591 29.7307 75.0116 29.7963 74.2058 30.0521C71.11 31.0349 69.4828 34.3787 70.5466 37.4787C71.6175 40.5991 74.9945 42.3541 78.0903 41.3713C80.8257 40.5028 82.4228 37.7567 81.9724 34.9368L89.3968 33.9594C90.1245 38.4779 88.5221 42.922 85.3145 45.8402L88.8119 52.112L88.4447 53.5291L87.0009 54.8379L84.9522 54.9048L83.1694 54.1703L80.1088 48.6916L80.0875 48.6984C73.2182 50.6079 65.8229 46.6682 63.4432 39.7339C61.0145 32.6569 64.7165 25.081 71.7351 22.8527Z" fill="#FF5A2E"/>
<path d="M76.301 59.6694C76.4708 60.1174 98.9984 51.9123 98.7707 51.4104C97.9102 49.5243 92.3186 49.3528 86.1199 51.5501C79.9041 53.7729 75.5278 57.765 76.301 59.6694Z" fill="#303135"/>
<path d="M118.047 121.278C119.298 123.164 124.329 123.528 129.969 122.348C135.589 121.173 139.814 118.664 139.381 116.748C138.947 114.825 135.346 114.282 128.663 115.68C120.34 117.42 116.893 119.525 118.047 121.278Z" fill="#303135"/>
<path d="M127.054 120.298C131.396 119.39 135.261 119.23 137.014 119.784C135.405 120.756 133.109 121.642 130.459 122.247L129.97 122.35L129.523 122.443C125.638 123.205 122.097 123.221 119.929 122.506C121.706 121.689 124.223 120.89 127.054 120.298Z" fill="#FF4433"/>
<path d="M19.4806 99.0944C16.5614 84.0557 26.461 69.216 41.8924 65.5058C49.5863 63.6553 57.4377 64.8269 63.8594 68.1657C63.8859 68.1821 63.9077 68.1775 63.9343 68.1939C66.1571 70.8502 68.4605 73.8632 57.7774 93.5263C45.4615 116.278 37.2601 119.422 34.3742 119.19C27.4041 115.043 21.0896 107.528 19.4806 99.0944Z" fill="#303135"/>
<path d="M54.1711 50.1116C56.76 48.1196 60.5292 48.5184 62.6002 51.0085C64.6712 53.4987 64.2566 57.124 61.6677 59.1159C44.7772 72.1426 36.739 91.2746 40.8611 109.512C41.5631 112.618 39.4969 115.71 36.2676 116.385C33.0164 117.065 29.824 115.073 29.122 111.967C23.9848 89.238 33.853 65.7671 54.1711 50.1116Z" fill="#B06BFF"/>
<path d="M33.5582 96.2695C46.5038 93.5626 59.2996 101.474 62.1139 113.926C64.9282 126.377 56.7024 138.685 43.7568 141.392C30.8112 144.099 18.0154 136.187 15.2011 123.735C12.3868 111.284 20.6126 98.9764 33.5582 96.2695Z" fill="#984DFF"/>
<path d="M27.3893 107.01C33.2148 105.792 39.3157 110.869 41.0042 118.34C42.6928 125.811 39.3339 132.865 33.5084 134.084C27.6829 135.302 21.5821 130.225 19.8935 122.754C18.2049 115.283 21.5638 108.228 27.3893 107.01Z" fill="#D98CFF"/>
<path d="M122.143 36.184C121.788 35.3893 122.498 34.5347 123.382 34.6915L127.998 35.5091C128.369 35.5747 128.681 35.8136 128.829 36.147L129.649 37.9845C130.004 38.7792 129.293 39.6338 128.409 39.477L125.626 38.9837L128.957 46.4513C128.969 46.4762 128.98 46.502 128.991 46.5279L129.13 46.8395L129.105 46.8506C129.486 48.1984 128.846 49.8889 127.406 51.0168C125.613 52.4212 123.259 52.4224 122.148 51.0213C121.037 49.6202 121.589 47.3467 123.382 45.9423C124.204 45.2979 125.144 44.9493 126.029 44.8948L122.143 36.184Z" fill="#FF9D33"/>
<path d="M164.52 19.3136C164.866 17.7332 166.905 17.1628 168.08 18.3165L174.214 24.3385C174.706 24.8222 174.915 25.509 174.769 26.1718L173.966 29.8245C173.619 31.4049 171.58 31.9753 170.405 30.8216L166.708 27.1904L163.445 42.0362C163.435 42.0864 163.423 42.1372 163.411 42.188L163.275 42.8077L163.225 42.7989C162.3 45.2507 159.434 47.1702 155.973 47.4024C151.666 47.6923 148.07 45.2597 147.94 41.9716C147.81 38.6835 151.195 35.7833 155.502 35.4934C157.478 35.3601 159.303 35.7998 160.714 36.6313L164.52 19.3136Z" fill="#FF9D33"/>
</svg>
